#N canvas 522 208 450 300 10;
#X obj 176 87 osc~ 440;
#X obj 200 205 dac~;
#X obj 186 141 *~ 0.2;
#X floatatom 165 56 5 0 0 0 - - -, f 5;
#X floatatom 254 117 5 0 0 0 - - -, f 5;
#X obj 219 17 hsl 128 15 0 127 0 0 empty empty empty -2 -8 0 10 -262144
-1 -1 0 1;
#X obj 282 78 hsl 128 15 0 127 0 0 empty empty empty -2 -8 0 10 -262144
-1 -1 0 1;
#X connect 0 0 2 0;
#X connect 2 0 1 0;
#X connect 2 0 1 1;
#X connect 3 0 0 0;
#X connect 4 0 2 1;
#X connect 5 0 3 0;
#X connect 6 0 4 0;
